inDegrees=no
num_controls=7
num_derivatives=13
num_iterations=115
num_multipliers=7
num_parameters=0
num_slacks=7
num_states=26
objective=0.508765
objective_accelerations=0.005683
objective_balance=0.003461
objective_effort=0.008517
objective_height=0.465684
objective_ligament=0.025420
solver_duration=1519.599385
status=Solve_Succeeded
success=true
DataType=double
version=3
OpenSimVersion=4.5
endheader
time	/jointset/ground_pelvis/pelvis_tilt/value	/jointset/ground_pelvis/pelvis_tx/value	/jointset/ground_pelvis/pelvis_ty/value	/jointset/hip_l/hip_flexion_l/value	/jointset/hip_l/hip_adduction_l/value	/jointset/hip_l/hip_rotation_l/value	/jointset/back/lumbar_extension/value	/jointset/patellofemoral_l/patellar_flexion_l/value	/jointset/knee_l/knee_flexion_l/value	/jointset/knee_l/knee_adduction_l/value	/jointset/knee_l/knee_rotation_l/value	/jointset/ankle_l/ankle_angle_l/value	/jointset/subtalar_l/subtalar_angle_l/value	/jointset/ground_pelvis/pelvis_tilt/speed	/jointset/ground_pelvis/pelvis_tx/speed	/jointset/ground_pelvis/pelvis_ty/speed	/jointset/hip_l/hip_flexion_l/speed	/jointset/hip_l/hip_adduction_l/speed	/jointset/hip_l/hip_rotation_l/speed	/jointset/back/lumbar_extension/speed	/jointset/patellofemoral_l/patellar_flexion_l/speed	/jointset/knee_l/knee_flexion_l/speed	/jointset/knee_l/knee_adduction_l/speed	/jointset/knee_l/knee_rotation_l/speed	/jointset/ankle_l/ankle_angle_l/speed	/jointset/subtalar_l/subtalar_angle_l/speed	/forceset/tau_hip_flexion_l	/forceset/tau_hip_adduction_l	/forceset/tau_hip_rotation_l	/forceset/tau_knee_flexion_l	/forceset/tau_ankle_angle_l	/forceset/tau_subtalar_angle_l	/forceset/tau_lumbar_extension	lambda_cid13_p0	lambda_cid13_p1	lambda_cid13_p2	lambda_cid13_p3	lambda_cid13_p4	lambda_cid13_p5	lambda_cid14_p0	/jointset/ground_pelvis/pelvis_tilt/accel	/jointset/ground_pelvis/pelvis_tx/accel	/jointset/ground_pelvis/pelvis_ty/accel	/jointset/hip_l/hip_flexion_l/accel	/jointset/hip_l/hip_adduction_l/accel	/jointset/hip_l/hip_rotation_l/accel	/jointset/back/lumbar_extension/accel	/jointset/patellofemoral_l/patellar_flexion_l/accel	/jointset/knee_l/knee_flexion_l/accel	/jointset/knee_l/knee_adduction_l/accel	/jointset/knee_l/knee_rotation_l/accel	/jointset/ankle_l/ankle_angle_l/accel	/jointset/subtalar_l/subtalar_angle_l/accel	gamma_cid13_p0	gamma_cid13_p1	gamma_cid13_p2	gamma_cid13_p3	gamma_cid13_p4	gamma_cid13_p5	gamma_cid14_p0
1.5	0.1033127796138813	0.09789075897552017	0.9465079116287067	0.02202796818511438	-0.2250780887707217	-0.3800957469023219	-0.4184157807875651	0.0894667366840743	0.08946673668408033	-0.08562614396129374	-0.1745111594222345	0.01184529727592518	0.08034514129513386	0.1115267466560783	0.001447692622747646	0.01231303216799322	-0.1973342645918647	0.01418053397562768	-0.0363163299463623	0.05746196264710495	-0.1221015273800095	-0.1221015273799872	-0.02096185665509696	0.0001591738167598661	-0.04105995034949363	-0.001079936115864829	0.0228273058070993	0.05577292244067772	-0.008817867006219173	-0.1088282685391348	0.09748570834103283	-0.06020183897042451	0.09228063257649642	-18.7521479126808	25.3822348497036	0.1214764885993817	3.114581810162549	-702.979454536056	-27.03806616440821	-19.10991441996843	-0.09276847748820145	-0.06437244362037046	-0.01975537498566664	0.2641228662705116	-0.02988631298977747	0.05513103243787687	0.0470863540920007	0.1463958628236322	0.1463958628236283	-0.008722372305477672	-0.0008098972083195499	-0.03095615442703243	-0.04530288817942456	2.798494538145368e-11	4.848794631242249e-09	-1.695790248443585e-09	5.994882035799328e-10	7.084713124093801e-09	2.962459243082911e-09	4.150688033505466e-10
1.51	0.1044234592067181	0.09790204344289559	0.9466300674275463	0.02006765331766918	-0.2249377548720797	-0.3804562199664416	-0.4178389925244961	0.08825288258834883	0.08825288258827725	-0.08583621291754923	-0.1745096226866986	0.01143311620144172	0.08033208889028368	0.1106029329046164	0.0008109597677639687	0.01211784137188753	-0.1947202103041546	0.01388580021823314	-0.03577804254829553	0.05788855673116215	-0.1206629321249444	-0.1206629321249234	-0.02104985355455347	0.0001469699301910581	-0.04137166882058081	-0.001529101261230511	0.02421125060733678	0.05490857635667434	-0.008875806646808919	-0.1099656967716622	0.09913297783424159	-0.06038516650888605	0.09133242273831384	-18.24119753468511	25.40315322348626	0.08300285817159353	2.9329169687301	-702.9819552843401	-27.22986094274704	-19.07063981137153	-0.09312386569317679	-0.06305974769080269	-0.01944243749515837	0.2613213944548872	-0.02933430513651002	0.05321407536758712	0.03937594982599499	0.1435452180283887	0.1435452180281294	-0.008525543082617994	-0.001606601548419321	-0.03059030162425133	-0.04450735415748602	3.324980814683969e-11	4.906615647045069e-09	-1.735497915595927e-09	6.021550065222369e-10	7.123395287225144e-09	3.001997233404927e-09	4.24986878023065e-10
1.52	0.1055247134536933	0.09790701337347003	0.9467502630173124	0.01813373392996199	-0.2248003817906494	-0.3808113028602006	-0.4172581523177372	0.08705360521731835	0.0870536052173129	-0.08604709928165555	-0.174508244183549	0.01101795582060996	0.08031458802869058	0.1096416774844152	0.0001847852625493638	0.01192099035330451	-0.1920551686391161	0.01358837053994471	-0.03523829587517852	0.05827235138577722	-0.1191861824226589	-0.1191861824226392	-0.02112533822667905	0.0001275273569429692	-0.04165581161864343	-0.001969627464280561	0.02559519540744637	0.05404423027272724	-0.008933746286735688	-0.1111031250043053	0.1007802473274341	-0.06056849404730252	0.09038421290003522	-17.72993006419295	25.42404023763111	0.04450663177592865	2.751453803889183	-702.9805213777397	-27.41927075439577	-19.03169949234845	-0.1002568112362886	-0.0622607736662984	-0.02008741948114182	0.274320341736137	-0.03042549716857276	0.05542288744783114	0.03852646820345827	0.1540267522676404	0.1540267522676596	-0.00621992683934282	-0.002257634544213896	-0.025441019821862	-0.04357509971620586	3.447138312358015e-11	4.975118456342762e-09	-1.774284677874244e-09	6.116697054290575e-10	7.176842211819576e-09	3.050546628641317e-09	4.346206303762826e-10
1.53	0.1066161655250918	0.09790577559613999	0.9468684816776175	0.01622672237061594	-0.2246659939766461	-0.3811609975420864	-0.4166736874316402	0.0858692873003135	0.0858692873002069	-0.086258673093131	-0.1745071119972189	0.01060009418259016	0.08029272891274677	0.1086418945507425	-0.0004304914877363383	0.01172239464514632	-0.1893373504795375	0.01328883084675278	-0.03470173871413636	0.05861387025096956	-0.1176698376215761	-0.1176698376215673	-0.02118674476202585	9.611446923765514e-05	-0.04191127306267076	-0.002400383379649376	0.02697945631009451	0.05316942548210341	-0.00899428402913339	-0.1122751022403437	0.1024723817177928	-0.06075349550075522	0.08943378263137604	-17.20473051709294	25.44422267180977	0.004971532064323106	2.562881844943746	-702.9847304577431	-27.61262339125928	-18.99311202715436	-0.1008655649024418	-0.0608836113587084	-0.01979624930437091	0.2719813586685952	-0.02977299881759865	0.05260784712557631	0.03095125789248055	0.1515727592462449	0.1515727592445202	-0.005698454014626762	-0.004002913345293133	-0.02481223510361233	-0.04255456708559718	3.139696482488476e-11	5.054970671228754e-09	-1.812092978723909e-09	6.284602937981768e-10	7.24597669546854e-09	3.108670641599232e-09	4.43952290265243e-10
